solid "rectangle_container<stl unit=MM>"
   facet normal 1 0 0
      outer loop
         vertex 25 9.99999999999996 11.33
         vertex 25 -10 11.33
         vertex 25 10 -11.33
      endloop
   endfacet
   facet normal 1 0 0
      outer loop
         vertex 25 10 -11.33
         vertex 25 -10 11.33
         vertex 25 -9.99999999999996 -11.33
      endloop
   endfacet
   facet normal 0 -1 -3.52150396711973E-15
      outer loop
         vertex 25 -10 11.33
         vertex -25 -10 11.33
         vertex 25 -9.99999999999996 -11.33
      endloop
   endfacet
   facet normal 0 -1 -3.52150396711973E-15
      outer loop
         vertex 25 -9.99999999999996 -11.33
         vertex -25 -10 11.33
         vertex -25 -9.99999999999996 -11.33
      endloop
   endfacet
   facet normal -1 0 0
      outer loop
         vertex -25 -10 11.33
         vertex -25 9.99999999999996 11.33
         vertex -25 -9.99999999999996 -11.33
      endloop
   endfacet
   facet normal -1 0 0
      outer loop
         vertex -25 -9.99999999999996 -11.33
         vertex -25 9.99999999999996 11.33
         vertex -25 10 -11.33
      endloop
   endfacet
   facet normal 0 1 3.67461283525537E-15
      outer loop
         vertex -25 9.99999999999996 11.33
         vertex 25 9.99999999999996 11.33
         vertex -25 10 -11.33
      endloop
   endfacet
   facet normal 0 1 3.67461283525537E-15
      outer loop
         vertex -25 10 -11.33
         vertex 25 9.99999999999996 11.33
         vertex 25 10 -11.33
      endloop
   endfacet
   facet normal 0 -3.46944695195361E-15 1
      outer loop
         vertex -25 -10 11.33
         vertex 25 -10 11.33
         vertex 24 -9.00000000000004 11.33
      endloop
   endfacet
   facet normal -9.62964972193617E-30 -3.46944695195361E-15 1
      outer loop
         vertex 24 -9.00000000000004 11.33
         vertex 25 -10 11.33
         vertex 25 9.99999999999996 11.33
      endloop
   endfacet
   facet normal -1.06996108021513E-29 -3.46944695195361E-15 1
      outer loop
         vertex 24 -9.00000000000004 11.33
         vertex 25 9.99999999999996 11.33
         vertex 24 8.99999999999996 11.33
      endloop
   endfacet
   facet normal 0 -3.46944695195362E-15 1
      outer loop
         vertex 24 8.99999999999996 11.33
         vertex 25 9.99999999999996 11.33
         vertex -25 9.99999999999996 11.33
      endloop
   endfacet
   facet normal 0 -3.46944695195362E-15 1
      outer loop
         vertex 24 8.99999999999996 11.33
         vertex -25 9.99999999999996 11.33
         vertex -24 8.99999999999996 11.33
      endloop
   endfacet
   facet normal 9.02779661431516E-30 -3.46944695195361E-15 1
      outer loop
         vertex -24 8.99999999999996 11.33
         vertex -25 9.99999999999996 11.33
         vertex -25 -10 11.33
      endloop
   endfacet
   facet normal 2.13992216043026E-29 -3.46944695195361E-15 1
      outer loop
         vertex -24 8.99999999999996 11.33
         vertex -25 -10 11.33
         vertex -24 -9.00000000000004 11.33
      endloop
   endfacet
   facet normal 0 -3.4694469519536E-15 1
      outer loop
         vertex -24 -9.00000000000004 11.33
         vertex -25 -10 11.33
         vertex 24 -9.00000000000004 11.33
      endloop
   endfacet
   facet normal 0 3.46944695195361E-15 -1
      outer loop
         vertex 25 10 -11.33
         vertex 25 -9.99999999999996 -11.33
         vertex -25 10 -11.33
      endloop
   endfacet
   facet normal 0 3.46944695195361E-15 -1
      outer loop
         vertex -25 10 -11.33
         vertex 25 -9.99999999999996 -11.33
         vertex -25 -9.99999999999996 -11.33
      endloop
   endfacet
   facet normal 0 -3.46944695195361E-15 1
      outer loop
         vertex -24 9.00000000000004 -10.33
         vertex -24 -8.99999999999996 -10.33
         vertex 24 9.00000000000004 -10.33
      endloop
   endfacet
   facet normal 0 -3.46944695195361E-15 1
      outer loop
         vertex 24 9.00000000000004 -10.33
         vertex -24 -8.99999999999996 -10.33
         vertex 24 -8.99999999999996 -10.33
      endloop
   endfacet
   facet normal 0 -1 -3.5239073380877E-15
      outer loop
         vertex 24 8.99999999999996 11.33
         vertex -24 8.99999999999996 11.33
         vertex 24 9.00000000000004 -10.33
      endloop
   endfacet
   facet normal 0 -1 -3.5239073380877E-15
      outer loop
         vertex 24 9.00000000000004 -10.33
         vertex -24 8.99999999999996 11.33
         vertex -24 9.00000000000004 -10.33
      endloop
   endfacet
   facet normal 1 0 0
      outer loop
         vertex -24 8.99999999999996 11.33
         vertex -24 -9.00000000000004 11.33
         vertex -24 9.00000000000004 -10.33
      endloop
   endfacet
   facet normal 1 0 0
      outer loop
         vertex -24 9.00000000000004 -10.33
         vertex -24 -9.00000000000004 11.33
         vertex -24 -8.99999999999996 -10.33
      endloop
   endfacet
   facet normal 0 1 3.5239073380877E-15
      outer loop
         vertex -24 -9.00000000000004 11.33
         vertex 24 -9.00000000000004 11.33
         vertex -24 -8.99999999999996 -10.33
      endloop
   endfacet
   facet normal 0 1 3.5239073380877E-15
      outer loop
         vertex -24 -8.99999999999996 -10.33
         vertex 24 -9.00000000000004 11.33
         vertex 24 -8.99999999999996 -10.33
      endloop
   endfacet
   facet normal -1 0 0
      outer loop
         vertex 24 -9.00000000000004 11.33
         vertex 24 8.99999999999996 11.33
         vertex 24 -8.99999999999996 -10.33
      endloop
   endfacet
   facet normal -1 0 0
      outer loop
         vertex 24 -8.99999999999996 -10.33
         vertex 24 8.99999999999996 11.33
         vertex 24 9.00000000000004 -10.33
      endloop
   endfacet
endsolid
